<?xml version="1.0" standalone="no"?>
<!DOCTYPE svg PUBLIC "-//W3C//DTD SVG 20010904//EN"
 "http://www.w3.org/TR/2001/REC-SVG-20010904/DTD/svg10.dtd">
<svg version="1.0" xmlns="http://www.w3.org/2000/svg"
 width="283.000000pt" height="283.000000pt" viewBox="0 0 283.000000 283.000000"
 preserveAspectRatio="xMidYMid meet">
<metadata>
Created by potrace 1.11, written by Peter Selinger 2001-2013
</metadata>
<g transform="translate(0.000000,283.000000) scale(0.100000,-0.100000)"
fill="#000000" stroke="none">
<path d="M7 2823 c-4 -3 -7 -11 -7 -17 0 -6 5 -5 12 2 6 6 9 14 7 17 -3 3 -9
2 -12 -2z"/>
<path d="M2760 2827 c0 -2 15 -16 33 -33 l32 -29 -29 33 c-28 30 -36 37 -36
29z"/>
<path d="M750 2522 c0 -4 278 -6 617 -4 340 1 628 0 641 -3 l22 -5 -2 -1094
c-2 -602 0 -1089 4 -1083 9 14 11 2158 2 2181 -5 14 -74 16 -645 16 -351 0
-639 -4 -639 -8z"/>
<path d="M745 1430 c0 -586 1 -825 2 -533 2 293 2 773 0 1065 -1 293 -2 54 -2
-532z"/>
<path d="M820 1438 c0 -557 4 -1019 8 -1026 7 -10 127 -12 568 -10 l559 3 3
1023 2 1022 -570 0 -570 0 0 -1012z m748 920 c18 -18 14 -46 -7 -58 -11 -6
-87 -10 -175 -10 -127 0 -157 3 -170 16 -19 18 -19 20 -6 45 10 18 23 19 178
19 117 0 172 -4 180 -12z m310 -847 c1 -512 -1 -708 -9 -717 -9 -12 -96 -14
-471 -14 -297 0 -466 4 -479 10 -18 10 -19 29 -19 708 0 533 3 701 12 710 9 9
126 12 488 10 l475 -3 3 -704z m-444 -815 c45 -19 66 -52 66 -104 0 -37 -6
-50 -35 -79 -33 -33 -39 -35 -82 -30 -87 9 -128 90 -87 168 14 28 61 58 92 59
7 0 28 -6 46 -14z"/>
<path d="M977 2143 c-1 -1 -1 -290 1 -642 l2 -641 415 0 415 0 -2 640 -3 640
-413 3 c-228 1 -414 1 -415 0z"/>
<path d="M1359 614 c-19 -23 1 -49 37 -49 20 0 30 6 32 18 8 40 -43 63 -69 31z"/>
<path d="M750 329 c0 -5 5 -7 10 -4 6 3 10 8 10 11 0 2 -4 4 -10 4 -5 0 -10
-5 -10 -11z"/>
<path d="M1088 323 c172 -2 451 -2 620 0 169 1 28 2 -313 2 -341 0 -479 -1
-307 -2z"/>
<path d="M2799 83 c-1 -1 -2 -9 -3 -15 0 -7 -11 -14 -22 -16 -14 -2 -24 -12
-27 -28 -3 -19 -2 -22 9 -13 8 6 11 16 7 22 -3 5 -2 7 4 4 5 -4 22 6 37 22 19
20 22 28 11 28 -8 0 -16 -2 -16 -4z"/>
<path d="M5 30 c3 -5 8 -10 11 -10 2 0 4 5 4 10 0 6 -5 10 -11 10 -5 0 -7 -4
-4 -10z"/>
</g>
</svg>
