<?xml version="1.0" standalone="no"?>
<!DOCTYPE svg PUBLIC "-//W3C//DTD SVG 20010904//EN"
 "http://www.w3.org/TR/2001/REC-SVG-20010904/DTD/svg10.dtd">
<svg version="1.0" xmlns="http://www.w3.org/2000/svg"
 width="700.000000pt" height="700.000000pt" viewBox="0 0 700.000000 700.000000"
 preserveAspectRatio="xMidYMid meet">
<metadata>
Created by potrace 1.11, written by Peter Selinger 2001-2013
</metadata>
<g transform="translate(0.000000,700.000000) scale(0.100000,-0.100000)"
fill="#000000" stroke="none">
<path d="M3282 6949 c-646 -39 -1277 -265 -1807 -647 -265 -191 -586 -512
-777 -777 -572 -794 -781 -1786 -578 -2747 99 -466 296 -912 578 -1303 191
-265 512 -586 777 -777 794 -572 1786 -781 2747 -578 466 99 912 296 1303 578
265 191 586 512 777 777 572 794 781 1786 578 2747 -99 466 -296 912 -578
1303 -191 265 -512 586 -777 777 -541 390 -1157 607 -1835 648 -182 11 -214
11 -408 -1z m1705 -869 c18 -10 40 -31 50 -47 17 -26 18 -137 21 -2513 2
-1671 0 -2497 -7 -2520 -6 -20 -24 -49 -41 -65 l-31 -30 -1467 -3 c-1441 -2
-1468 -2 -1499 17 -18 11 -40 32 -50 48 -17 26 -18 136 -21 2508 -1 1364 0
2495 3 2513 7 39 57 99 88 105 12 2 675 5 1472 6 1421 1 1451 1 1482 -19z"/>
<path d="M2200 3500 l0 -2340 1300 0 1300 0 0 2340 0 2340 -1300 0 -1300 0 0
-2340z m1890 2106 c0 -58 -3 -75 -16 -80 -20 -8 -1128 -8 -1148 0 -13 5 -16
22 -16 80 l0 74 590 0 590 0 0 -74z m458 -287 c17 -6 41 -26 52 -44 20 -32 20
-43 20 -1551 0 -1186 -3 -1524 -13 -1543 -6 -13 -25 -34 -40 -45 -28 -21 -31
-21 -1045 -24 -700 -2 -1028 0 -1054 8 -20 6 -48 24 -62 41 l-26 31 0 1524 c0
1137 3 1531 12 1547 13 25 43 49 73 59 37 11 2049 9 2083 -3z m-955 -3425 c57
-19 131 -83 159 -138 13 -26 23 -67 26 -112 4 -61 1 -80 -20 -125 -104 -227
-412 -227 -516 0 -21 45 -24 64 -20 125 6 87 31 139 93 194 78 69 180 89 278
56z"/>
<path d="M2610 3725 l0 -1375 890 0 890 0 0 1375 0 1375 -890 0 -890 0 0
-1375z"/>
<path d="M3416 1729 c-43 -37 -58 -85 -44 -136 27 -97 145 -132 217 -64 61 57
58 145 -5 200 -29 26 -43 31 -84 31 -41 0 -55 -5 -84 -31z"/>
</g>
</svg>
